# xmcd
#
# Track frame offsets:
#  150
#  14298
#  31788
#  44385
#  58104
#  71478
#  86172
#  101125
#  127154
#  142455
#  154532
#  171800
#  183773
#  197148
#  211455
#  244959
#  258809
#
# Disc length: 3705 seconds
#
# Revision: 0
# Processed by: cddbd v1.5.2PL0 Copyright (c) Steve Scherf et al.
# Submitted via: AltoMP3_Maker 3.0
#
DISCID=f80e7711
DTITLE=John McSweeney - Until You Have Walked In My Shoes
DYEAR=1900
DGENRE=
TTITLE0=Somewhere Between Me And You
TTITLE1=Not That I Care
TTITLE2=It's Such A Pretty World Today
TTITLE3=You Would Be Lonely Too
TTITLE4=Waltz Of The Angels
TTITLE5=Someone Must Feel Like A Fool Tonight
TTITLE6=That's Amore
TTITLE7=You Raise Me Up
TTITLE8=Tech Me To Dance
TTITLE9=You're Playing Hard To Forget
TTITLE10=Somewhere My Love
TTITLE11=When The Girl In Your Arms
TTITLE12=We Dance The Irish Waltz
TTITLE13=You Look So Good In Love
TTITLE14=Medley Of Jim Reeves Songs
TTITLE15=Ghost Story
TTITLE16=Until You Have Walked In My Shoes
EXTD=
EXTT0=
EXTT1=
EXTT2=
EXTT3=
EXTT4=
EXTT5=
EXTT6=
EXTT7=
EXTT8=
EXTT9=
EXTT10=
EXTT11=
EXTT12=
EXTT13=
EXTT14=
EXTT15=
EXTT16=
PLAYORDER=
